<?xml version="1.0" encoding="utf-8"?>
<!-- Generator: Adobe Illustrator 23.0.6, SVG Export Plug-In . SVG Version: 6.00 Build 0)  -->
<svg version="1.1" id="Capa_1" xmlns="http://www.w3.org/2000/svg" xmlns:xlink="http://www.w3.org/1999/xlink" x="0px" y="0px"
	 viewBox="0 0 512 512" style="enable-background:new 0 0 512 512;" xml:space="preserve">
<style type="text/css">
	.st0{fill:#FEDD55;}
	.st1{fill:#FCC63D;}
	.st2{fill:#82D6FF;}
	.st3{fill:#0A8BD9;}
</style>
<circle class="st0" cx="256" cy="256" r="256"/>
<path class="st1" d="M512,256c0-5-0.16-9.96-0.44-14.89L368.73,98.28L362,118l-21.29-1l-52.99-53L64,287.72l53,52.99l26,72.74
	l98.1,98.11c4.94,0.28,9.9,0.44,14.9,0.44C397.39,512,512,397.39,512,256z"/>
<path class="st2" d="M369.34,414.19l44.87-44.87l-29.49-44.12c4.62-8.75,8.44-17.66,11.3-27.21l51.24-10.18v-63.64L396.01,214
	c-2.86-9.54-6.68-18.46-11.3-27.21l29.49-44.12L369.33,97.8l-44.12,29.49c-8.75-4.62-17.66-8.43-27.21-11.3l-10.18-51.24h-63.64
	l-10.18,51.24c-9.54,2.86-18.46,6.68-27.21,11.3l-44.12-29.48L97.8,142.67l29.49,44.12c-4.62,8.75-8.43,17.66-11.3,27.21
	l-51.23,10.18v63.64L115.99,298c2.86,9.55,6.68,18.46,11.3,27.21l-29.49,44.12l44.87,44.87l44.12-29.49
	c8.75,4.62,17.66,8.44,27.21,11.3l10.18,51.23h63.64L298,396.01c9.55-2.86,18.46-6.68,27.21-11.3L369.34,414.19z M200.32,311.68
	c-30.71-30.71-30.7-80.67,0-111.37s80.66-30.71,111.37,0s30.71,80.66,0,111.37S231.02,342.39,200.32,311.68z"/>
<path class="st3" d="M325.2,384.71c-8.75,4.62-17.66,8.44-27.21,11.3l-10.18,51.23h-63.64L214,396.01
	c-9.55-2.86-18.46-6.68-27.21-11.3l-44.12,29.49l-22.43-22.43l80.08-80.08c30.7,30.7,80.67,30.7,111.37,0s30.7-80.67,0-111.37
	l80.08-80.08l22.43,22.43l-29.49,44.12c4.62,8.75,8.43,17.66,11.3,27.21l51.23,10.18v63.64L396.01,298
	c-2.86,9.55-6.68,18.46-11.3,27.21l29.49,44.12l-44.87,44.87L325.2,384.71z"/>
</svg>
