<?xml version="1.0" encoding="utf-8"?>
<!-- Generator: Adobe Illustrator 23.0.6, SVG Export Plug-In . SVG Version: 6.00 Build 0)  -->
<svg version="1.1" id="Capa_1" xmlns="http://www.w3.org/2000/svg" xmlns:xlink="http://www.w3.org/1999/xlink" x="0px" y="0px"
	 viewBox="0 0 512 512" style="enable-background:new 0 0 512 512;" xml:space="preserve">
<style type="text/css">
	.st0{fill:#FEDD55;}
	.st1{fill:#FCC63D;}
	.st2{fill:#FC3E53;}
	.st3{fill:#FF807D;}
	.st4{fill:#B4E6FF;}
	.st5{fill:#0A8BD9;}
</style>
<g>
	<g>
		<g>
			<g>
				<g>
					<g>
						<g>
							<g>
								<circle class="st0" cx="256" cy="256" r="256"/>
							</g>
						</g>
					</g>
				</g>
			</g>
		</g>
	</g>
</g>
<path class="st1" d="M84.11,302.13l204.54,207.81C414.62,493.9,512,386.32,512,256c0-12.76-0.93-25.3-2.74-37.56L384.87,92.34
	L84.11,302.13z"/>
<path class="st2" d="M145.25,235.16l191.1,110.33l-34.97,60.57l-191.1-110.33L145.25,235.16z"/>
<path class="st3" d="M110.28,216.26l191.1-110.33l34.97,60.57l-191.1,110.33L110.28,216.26z"/>
<circle class="st4" cx="125.83" cy="256" r="62.2"/>
<path class="st5" d="M188.04,256c0,34.35-27.85,62.2-62.2,62.2s-62.2-27.85-62.2-62.2H188.04z"/>
<circle class="st4" cx="333.93" cy="128.05" r="62.2"/>
<circle class="st5" cx="333.93" cy="383.95" r="62.2"/>
</svg>
